<svg height="512pt" viewBox="0 0 512 512" width="512pt" xmlns="http://www.w3.org/2000/svg"><path d="m0 512h512v-512h-512zm391-482h91v60h-91zm-361 0h331v60h-331zm0 90h452v362h-452zm0 0"/><path d="m60 47h30v30h-30zm0 0"/><path d="m121 47h30v30h-30zm0 0"/><path d="m181 47h30v30h-30zm0 0"/><path d="m271 151h-211v90h211zm-30 60h-151v-30h151zm0 0"/><path d="m301 151h151v30h-151zm0 0"/><path d="m301 211h151v30h-151zm0 0"/><path d="m60 271h392v30h-392zm0 0"/><path d="m60 331h211v30h-211zm0 0"/><path d="m60 391h211v30h-211zm0 0"/><path d="m301 421h151v-90h-151zm30-60h91v30h-91zm0 0"/></svg>