<svg xmlns="http://www.w3.org/2000/svg" viewBox="0 0 113.85 113.85"><defs><style>.cls-1{fill:#fff;}</style></defs><title>Element 1</title><g id="Ebene_2" data-name="Ebene 2"><g id="Ebene_2-2" data-name="Ebene 2"><g id="Stats"><g id="stats-2" data-name="stats"><g id="minigames"><g id="minigames-2" data-name="minigames"><path class="cls-1" d="M103.85,0H60.26V22.77a3.34,3.34,0,0,1-5.55,2.49,6.67,6.67,0,1,0,0,10,3.34,3.34,0,0,1,5.55,2.49V53.59H70.74a13.34,13.34,0,1,1,25.74,0h17.37V10A10,10,0,0,0,103.85,0Z"/><path class="cls-1" d="M25.22,59.19l0,.05,0,0Z"/><path class="cls-1" d="M50.25,16.9a13.29,13.29,0,0,1,3.34.42V0H10A10,10,0,0,0,0,10V53.59H22.77a3.35,3.35,0,0,1,3.32,3.24,4.07,4.07,0,0,1-.87,2.36l0,0-.06.08,0,0a6.67,6.67,0,1,0,10-.1,3.36,3.36,0,0,1,2.49-5.55H53.59V43.16A13.34,13.34,0,1,1,50.25,16.9Z"/><path class="cls-1" d="M63.6,76.94a6.71,6.71,0,0,0-4.46,1.69,3.33,3.33,0,0,1-5.55-2.49V60.26H43.11A13.32,13.32,0,1,1,16.9,63.6a13,13,0,0,1,.48-3.34H0v43.59a10,10,0,0,0,10,10H53.59V91.08a3.34,3.34,0,0,1,5.55-2.49A6.68,6.68,0,1,0,63.6,76.94Z"/><path class="cls-1" d="M91.08,60.26a3.36,3.36,0,0,1-2.49-5.55,6.67,6.67,0,1,0-10,0,3.35,3.35,0,0,1-2.49,5.55H60.26V70.69a13.34,13.34,0,1,1,0,25.84v17.32h43.59a10,10,0,0,0,10-10V60.26Z"/></g></g></g></g></g></g></svg>