<svg xmlns="http://www.w3.org/2000/svg" viewBox="0 0 116.95 135.13"><defs><style>.cls-1{fill:#000001;}</style></defs><title>Element 1</title><g id="Ebene_2" data-name="Ebene 2"><g id="Ebene_2-2" data-name="Ebene 2"><g id="Layer-10"><path class="cls-1" d="M29.23,16.89,0,33.77v67.51l29.23,16.88L58.48,135l13.74-8,14.38-8.49.19-.19,18.45,16.79,10.05-6.36L98.22,111.71,117,101.28V33.77L87.71,16.89,58.48,0Zm5.26,93.43-24-13.86V41.14L34.4,27.28l24-13.87,24,13.87,24,13.86V96.39l-12.48,7.38-12.7,7.3-11.34,6.55-11.34,6.54Z"/><g id="Birne"><path class="cls-1" d="M67.39,74.26h0c-3.6,4.42-4,7.78-3.82,9.44H60V75.38l5.84-5.91-1.21-1.18-6.1,6.23a.84.84,0,0,0-.25.6v8.64h-.79V75.35a.8.8,0,0,0-.28-.61L50.46,68.5l-1.15,1.25,6.45,6v8H51.6c.26-3.71-2.54-7.78-2.69-8L47.52,73.9a12.15,12.15,0,0,1-2.41-7.2,12.48,12.48,0,1,1,25,0,10,10,0,0,1-2.77,7.63M65.08,90.27a.59.59,0,0,1-.59.59H50.66a.59.59,0,0,1-.59-.59v-.34a.56.56,0,0,1,.51-.62H64.52a.56.56,0,0,1,.58.56h0Zm-7.49,2.62a1,1,0,0,1-.83-.4h1.65a1.05,1.05,0,0,1-.82.4M50.1,86.11a.57.57,0,0,1,.56-.58H64.52a.58.58,0,0,1,.58.58v.35a.57.57,0,0,1-.58.57H50.66a.58.58,0,0,1-.57-.57ZM57.59,52.6A14.15,14.15,0,0,0,43.4,66.7h0A13.87,13.87,0,0,0,46.18,75l1.38,1.83S50.34,81,49.88,84.1a2.26,2.26,0,0,0-1.47,2v.35a2.2,2.2,0,0,0,.86,1.72,2.22,2.22,0,0,0-.82,1.69v.4a2.29,2.29,0,0,0,2.21,2.22h4.16a2.77,2.77,0,0,0,5.35,0h4.35a2.27,2.27,0,0,0,2.25-2.22v-.34a2.21,2.21,0,0,0-.86-1.78,2.21,2.21,0,0,0,.82-1.69v-.35A2.24,2.24,0,0,0,65.26,84c-.16-1-.29-4.16,3.38-8.62A11.63,11.63,0,0,0,71.8,66.7,14.12,14.12,0,0,0,57.64,52.6h0"/><path class="cls-1" d="M57.59,47.55a.84.84,0,0,0,.84-.85h0v-5a.84.84,0,0,0-.84-.85h0a.88.88,0,0,0-.85.85v5a.85.85,0,0,0,.85.84h0"/><path class="cls-1" d="M47.45,50.13a.8.8,0,0,0,.64.3.85.85,0,0,0,.83-.88.83.83,0,0,0-.18-.5l-3.24-3.8a.85.85,0,0,0-1.2-.1h0a.84.84,0,0,0-.09,1.19h0Z"/><path class="cls-1" d="M41.2,55.2l-4.34-2.49A.87.87,0,0,0,36,54.22h0l4.34,2.51a.88.88,0,0,0,.42.11.84.84,0,0,0,.43-1.58"/><path class="cls-1" d="M39.78,64.36a.84.84,0,0,0-.84-.85H34a.85.85,0,0,0-.85.85h0a.85.85,0,0,0,.85.84h5a.85.85,0,0,0,.84-.84h0"/><path class="cls-1" d="M39.27,72.54l-4.71,1.65A.84.84,0,0,0,34,75.25a.86.86,0,0,0,.82.59.66.66,0,0,0,.28,0l4.73-1.65a.85.85,0,0,0-.56-1.6h0"/><path class="cls-1" d="M66.92,50.38a.84.84,0,0,0,.61-.27l3.66-3.81a.84.84,0,0,0,0-1.18h0a.87.87,0,0,0-1.2,0l-3.66,3.83a.85.85,0,0,0,0,1.2.87.87,0,0,0,.58.24"/><path class="cls-1" d="M80.84,53a.84.84,0,0,0-1.13-.38h0l-4.88,2.5a.85.85,0,0,0,.37,1.61.9.9,0,0,0,.39-.1l4.89-2.49A.83.83,0,0,0,80.85,53v0"/><path class="cls-1" d="M82.92,63.44H77.27a.86.86,0,0,0-.85.85.85.85,0,0,0,.85.84h5.65a.85.85,0,0,0,.85-.84h0a.85.85,0,0,0-.85-.85h0"/><path class="cls-1" d="M82.16,74.12l-5.34-1.65a.85.85,0,0,0-.5,1.62l5.34,1.65a1,1,0,0,0,.25,0,.84.84,0,0,0,.25-1.65"/></g></g></g></g></svg>