<svg xmlns="http://www.w3.org/2000/svg" xmlns:xlink="http://www.w3.org/1999/xlink" viewBox="0 0 84.34 97.45"><defs><style>.cls-1{fill:url(#linear-gradient);}.cls-2{fill:url(#linear-gradient-2);}.cls-3{fill:url(#linear-gradient-3);}.cls-4{fill:url(#linear-gradient-4);}.cls-5{fill:url(#linear-gradient-5);}.cls-6{fill:url(#linear-gradient-6);}.cls-7{fill:url(#linear-gradient-7);}.cls-8{fill:url(#linear-gradient-8);}.cls-9{fill:url(#linear-gradient-9);}.cls-10{fill:url(#linear-gradient-10);}.cls-11{fill:url(#linear-gradient-11);}</style><linearGradient id="linear-gradient" x1="-316.08" y1="991.65" x2="-315.92" y2="991.65" gradientTransform="matrix(413.35, -413.35, -413.35, -413.35, 540564.08, 279335.23)" gradientUnits="userSpaceOnUse"><stop offset="0" stop-color="#24b3ad"/><stop offset="1" stop-color="#ca8f2a"/></linearGradient><linearGradient id="linear-gradient-2" x1="-316.88" y1="993.06" x2="-316.72" y2="993.06" gradientTransform="matrix(127.26, 0, 0, -188.2, 40357.98, 186944.52)" gradientUnits="userSpaceOnUse"><stop offset="0" stop-color="#c48f2c"/><stop offset="1" stop-color="#33b09d"/></linearGradient><linearGradient id="linear-gradient-3" x1="-324.08" y1="999.72" x2="-323.92" y2="999.72" gradientTransform="matrix(7.58, 0, 0, -29.98, 2496.58, 29999.69)" xlink:href="#linear-gradient-2"/><linearGradient id="linear-gradient-4" x1="-317.15" y1="1002.12" x2="-316.99" y2="1002.12" gradientTransform="matrix(22.08, 0, 0, -24.64, 7036.09, 24729.75)" xlink:href="#linear-gradient-2"/><linearGradient id="linear-gradient-5" x1="-315.92" y1="1006.96" x2="-315.76" y2="1006.96" gradientTransform="matrix(26.98, 0, 0, -18.78, 8550.76, 18951.72)" xlink:href="#linear-gradient-2"/><linearGradient id="linear-gradient-6" x1="-315.7" y1="1035.22" x2="-315.54" y2="1035.22" gradientTransform="matrix(29.98, 0, 0, -7.58, 9487.44, 7890.47)" xlink:href="#linear-gradient-2"/><linearGradient id="linear-gradient-7" x1="-315.77" y1="1015.9" x2="-315.61" y2="1015.9" gradientTransform="matrix(28.73, 0, 0, -14.96, 9095.46, 15255.42)" xlink:href="#linear-gradient-2"/><linearGradient id="linear-gradient-8" x1="-320.59" y1="1002.11" x2="-320.43" y2="1002.11" gradientTransform="matrix(23.98, 0, 0, -24.64, 7736.25, 24727.17)" xlink:href="#linear-gradient-2"/><linearGradient id="linear-gradient-9" x1="-320.94" y1="1006.96" x2="-320.78" y2="1006.96" gradientTransform="matrix(29.51, 0, 0, -18.77, 9523.59, 18944.64)" xlink:href="#linear-gradient-2"/><linearGradient id="linear-gradient-10" x1="-320.76" y1="1035.19" x2="-320.6" y2="1035.19" gradientTransform="matrix(32.9, 0, 0, -7.58, 10608.86, 7890.2)" xlink:href="#linear-gradient-2"/><linearGradient id="linear-gradient-11" x1="-320.85" y1="1015.89" x2="-320.69" y2="1015.89" gradientTransform="matrix(31.49, 0, 0, -14.96, 10156.74, 15254.55)" xlink:href="#linear-gradient-2"/></defs><title>Element 1</title><g id="Ebene_2" data-name="Ebene 2"><g id="Ebene_2-2" data-name="Ebene 2"><g id="Header"><g id="Logo"><g id="new_app" data-name="new app"><g id="Layer-10"><path class="cls-1" d="M21.09,12.17,0,24.34V73L21.09,85.21,42.17,97.38l9.91-5.79,10.38-6.12.13-.13,13.3,12.11,7.25-4.59L70.84,80.55,84.34,73V24.34L63.26,12.17,42.17,0Zm3.79,67.38-17.3-10V29.67l17.23-10,17.29-10,17.3,10,17.29,10V69.51l-9,5.32-9.12,5.26-8.18,4.72-8.18,4.72Z"/><g id="Birne"><path class="cls-2" d="M48.61,53.55l0,0c-2.6,3.19-2.85,5.62-2.76,6.81H43.23v-6l4.23-4.31-.88-.86-4.4,4.5a.59.59,0,0,0-.17.42v6.22h-.58v-6a.64.64,0,0,0-.19-.45L36.39,49.4l-.83.9,4.65,4.31v5.78h-3c.19-2.66-1.82-5.61-1.93-5.77l-1-1.33A8.7,8.7,0,0,1,32.53,48a9,9,0,0,1,18,0,7.21,7.21,0,0,1-2,5.51M46.94,65.06a.42.42,0,0,1-.42.41h-10a.42.42,0,0,1-.41-.41v-.25a.41.41,0,0,1,.41-.42h10a.42.42,0,0,1,.42.42ZM41.52,67a.75.75,0,0,1-.59-.3h1.19a.75.75,0,0,1-.6.3m-5.39-4.9a.41.41,0,0,1,.42-.41h9.94a.41.41,0,0,1,.42.41v.25a.42.42,0,0,1-.42.42H36.55a.42.42,0,0,1-.42-.42Zm5.42-24.17A10.19,10.19,0,0,0,31.31,48a10,10,0,0,0,2,6l1,1.32s2,2.95,1.67,5.22a1.63,1.63,0,0,0-1.07,1.52v.25a1.61,1.61,0,0,0,.61,1.24,1.61,1.61,0,0,0-.58,1.23v.25a1.63,1.63,0,0,0,1.63,1.63h3a2,2,0,0,0,3.86,0h3.07a1.63,1.63,0,0,0,1.63-1.63v-.25a1.6,1.6,0,0,0-.6-1.24,1.61,1.61,0,0,0,.58-1.23v-.25a1.61,1.61,0,0,0-1.06-1.51c-.11-.7-.2-3,2.44-6.21A8.39,8.39,0,0,0,51.79,48,10.2,10.2,0,0,0,41.55,37.92"/><path class="cls-3" d="M41.55,34.28a.61.61,0,0,0,.61-.61v-3.6a.61.61,0,0,0-.61-.61.61.61,0,0,0-.61.61v3.6a.61.61,0,0,0,.61.61"/><path class="cls-4" d="M34.22,36.15a.61.61,0,0,0,.47.21.57.57,0,0,0,.39-.14.61.61,0,0,0,.07-.86l-2.33-2.75a.62.62,0,0,0-.86-.07.61.61,0,0,0-.07.86Z"/><path class="cls-5" d="M29.71,39.81,26.59,38a.6.6,0,0,0-.83.23.61.61,0,0,0,.22.83l3.12,1.8a.56.56,0,0,0,.3.08.61.61,0,0,0,.31-1.13"/><path class="cls-6" d="M28.7,46.4a.61.61,0,0,0-.61-.61H24.48a.61.61,0,1,0,0,1.22h3.61a.61.61,0,0,0,.61-.61"/><path class="cls-7" d="M28.33,52.31l-3.4,1.19a.61.61,0,0,0,.2,1.18l.2,0,3.4-1.19a.61.61,0,0,0,.38-.78.62.62,0,0,0-.78-.37"/><path class="cls-8" d="M48.27,36.32a.62.62,0,0,0,.44-.18l2.64-2.75a.61.61,0,0,0,0-.86.6.6,0,0,0-.86,0l-2.64,2.74a.6.6,0,0,0,0,.86.57.57,0,0,0,.42.17"/><path class="cls-9" d="M58.31,38.21a.61.61,0,0,0-.82-.26L54,39.75a.61.61,0,0,0-.27.82.62.62,0,0,0,.55.33.71.71,0,0,0,.28-.06L58,39a.61.61,0,0,0,.27-.82"/><path class="cls-10" d="M59.8,45.75H55.73a.61.61,0,0,0,0,1.22H59.8a.61.61,0,0,0,0-1.22"/><path class="cls-11" d="M59.25,53.45l-3.84-1.19a.61.61,0,1,0-.36,1.16l3.84,1.19a.61.61,0,0,0,.77-.4.61.61,0,0,0-.41-.76"/></g></g></g></g></g></g></g></svg>