<?xml version="1.0"?>
<svg xmlns="http://www.w3.org/2000/svg" viewBox="0 0 64 64" width="512" height="512"><g id="Monitor"><path d="M57,40H7a1,1,0,0,1-1-1V7A1,1,0,0,1,7,6H57a1,1,0,0,1,1,1V39A1,1,0,0,1,57,40ZM8,38H56V8H8Z"/><path d="M34,33H30a1,1,0,0,1-1-1V30.244l-1.243,1.243a1,1,0,0,1-1.414,0l-2.83-2.83a1,1,0,0,1,0-1.414L24.756,26H23a1,1,0,0,1-1-1V21a1,1,0,0,1,1-1h1.756l-1.243-1.243a1,1,0,0,1,0-1.414l2.83-2.83a1,1,0,0,1,1.414,0L29,15.756V14a1,1,0,0,1,1-1h4a1,1,0,0,1,1,1v1.756l1.243-1.243a1,1,0,0,1,1.414,0l2.83,2.83a1,1,0,0,1,0,1.414L39.244,20H41a1,1,0,0,1,1,1v4a1,1,0,0,1-1,1H39.244l1.243,1.243a1,1,0,0,1,0,1.414l-2.83,2.83a1,1,0,0,1-1.414,0L35,30.244V32A1,1,0,0,1,34,33Zm-3-2h2V28.65a1,1,0,0,1,.713-.958,2.306,2.306,0,0,0,.4-.168,1,1,0,0,1,1.171.179l1.663,1.663,1.416-1.416L36.7,26.287a1,1,0,0,1-.179-1.171,2.234,2.234,0,0,0,.169-.406A1,1,0,0,1,37.65,24H40V22H37.65a1,1,0,0,1-.957-.71,2.234,2.234,0,0,0-.169-.406,1,1,0,0,1,.179-1.171l1.663-1.663L36.95,16.634,35.287,18.3a1,1,0,0,1-1.171.179,2.306,2.306,0,0,0-.4-.168A1,1,0,0,1,33,17.35V15H31v2.35a1,1,0,0,1-.713.958,2.306,2.306,0,0,0-.4.168,1,1,0,0,1-1.171-.179L27.05,16.634,25.634,18.05,27.3,19.713a1,1,0,0,1,.179,1.171,2.234,2.234,0,0,0-.169.406,1,1,0,0,1-.957.71H24v2h2.35a1,1,0,0,1,.957.71,2.234,2.234,0,0,0,.169.406,1,1,0,0,1-.179,1.171L25.634,27.95l1.416,1.416L28.713,27.7a1,1,0,0,1,1.171-.179,2.306,2.306,0,0,0,.4.168A1,1,0,0,1,31,28.65Z"/><path d="M32,27a4,4,0,1,1,4-4A4,4,0,0,1,32,27Zm0-6a2,2,0,1,0,2,2A2,2,0,0,0,32,21Z"/><path d="M50,15H48a1,1,0,0,1,0-2h2a1,1,0,0,1,0,2Z"/><path d="M50,18H48a1,1,0,0,1,0-2h2a1,1,0,0,1,0,2Z"/><path d="M53,10H45a1,1,0,0,0-1,1v9a1,1,0,0,0,1,1h3v3H45a1,1,0,0,0,0,2h4a1,1,0,0,0,1-1V21h3a1,1,0,0,0,1-1V11A1,1,0,0,0,53,10Zm-1,9H46V12h6Z"/><path d="M16,33H14a1,1,0,0,1,0-2h2a1,1,0,0,1,0,2Z"/><path d="M16,30H14a1,1,0,0,1,0-2h2a1,1,0,0,1,0,2Z"/><path d="M19,25H16V22h3a1,1,0,0,0,0-2H15a1,1,0,0,0-1,1v4H11a1,1,0,0,0-1,1v9a1,1,0,0,0,1,1h8a1,1,0,0,0,1-1V26A1,1,0,0,0,19,25Zm-1,9H12V27h6Z"/><path d="M46,34H43a1,1,0,0,1-.707-.293l-2-2a1,1,0,0,1,1.414-1.414L43.414,32H46a1,1,0,0,1,0,2Z"/><path d="M53,33H49a1,1,0,0,1,0-2h4a1,1,0,0,1,0,2Z"/><path d="M53,36H49a1,1,0,0,1,0-2h4a1,1,0,0,1,0,2Z"/><path d="M15,12H11a1,1,0,0,1,0-2h4a1,1,0,0,1,0,2Z"/><path d="M15,15H11a1,1,0,0,1,0-2h4a1,1,0,0,1,0,2Z"/><path d="M23,15a1,1,0,0,1-.707-.293L20.586,13H18a1,1,0,0,1,0-2h3a1,1,0,0,1,.707.293l2,2A1,1,0,0,1,23,15Z"/><path d="M57,2H7A5.006,5.006,0,0,0,2,7V41a5.006,5.006,0,0,0,5,5H24.523l-3.2,8H19a5.006,5.006,0,0,0-5,5v2a1,1,0,0,0,1,1H49a1,1,0,0,0,1-1V59a5.006,5.006,0,0,0-5-5H42.677l-3.2-8H57a5.006,5.006,0,0,0,5-5V7A5.006,5.006,0,0,0,57,2ZM48,59v1H16V59a3,3,0,0,1,3-3H45A3,3,0,0,1,48,59Zm-7.477-5H23.477l3.2-8H37.323ZM60,41a3,3,0,0,1-3,3H7a3,3,0,0,1-3-3V7A3,3,0,0,1,7,4H57a3,3,0,0,1,3,3Z"/></g></svg>
